<svg width="229" height="66" viewBox="0 0 229 66" fill="none" xmlns="http://www.w3.org/2000/svg">
<g clip-path="url(#clip0_22_282)">
<path d="M0.108996 0.125211C0.296955 0.0758692 0.451066 -0.000567256 0.60458 3.17442e-06C6.93946 0.0350847 13.2747 0.0216786 19.6088 0.148314C21.7676 0.191097 23.7511 1.28205 25.5246 3.09031C29.5727 7.21652 29.9466 19.0045 24.3894 23.2328C24.1067 23.4478 23.8252 23.6652 23.4413 23.959C24.4974 24.6535 25.5363 25.1189 26.4072 25.9475C29.7497 29.1282 31.111 36.2449 29.6147 42.4957C28.3089 47.9493 25.2088 50.2013 21.6035 51.3993C20.4194 51.7928 19.1793 51.9971 17.9632 52.0093C12.0414 52.0706 6.11932 52.0367 0.108398 52.0367C0.108996 34.7526 0.108996 17.4663 0.108996 0.125211V0.125211ZM6.44248 44.4289C10.8468 44.4289 15.1241 44.5726 19.3934 44.377C22.0772 44.254 24.0165 40.1332 23.855 36.1251C23.6959 32.1743 21.9975 28.8145 19.3723 28.6388C15.1398 28.3556 10.8958 28.4357 6.65632 28.3724C6.59301 28.3718 6.52869 28.5053 6.44228 28.6014L6.44248 44.4289V44.4289ZM6.45721 21.6091C10.3938 21.6091 14.1902 21.8144 17.9697 21.5409C20.7531 21.3393 22.3241 18.1514 22.2199 13.7936C22.1278 9.9352 20.5373 7.61469 17.6739 7.5063C14.0837 7.3714 10.4896 7.43386 6.89685 7.42188C6.7507 7.42131 6.60435 7.53425 6.45721 7.59415V21.6091V21.6091ZM202.763 14.4775H208.043V18.5316C208.631 17.8822 209.347 17.1608 210.008 16.3483C214.054 11.3741 223.651 11.9845 226.935 22.0015C229.762 30.6224 229.639 39.2921 225.823 47.3181C223.71 51.7635 220.438 53.3521 216.732 53.0663C213.511 52.8173 210.676 51.3673 208.445 47.0965V65.9997H202.763C202.763 48.8103 202.763 31.6929 202.763 14.4775V14.4775ZM208.127 33.4603C208.365 35.3482 208.496 37.2814 208.863 39.1162C209.684 43.2107 212.184 46.2386 214.773 46.5001C218.237 46.8501 220.724 45.017 221.976 40.6184C223.567 35.0285 223.511 29.3909 221.185 24.1666C218.443 18.0039 211.87 18.519 209.545 24.9749C208.588 27.6325 208.12 30.4296 208.127 33.4603V33.4603ZM199.021 46.6592C199.021 48.2043 199.059 49.7732 198.994 51.3342C198.978 51.7195 198.64 52.3704 198.422 52.3972C196.775 52.5937 195.101 52.9377 193.475 52.6947C192.042 52.4802 191.252 50.7398 190.81 48.7273C187.407 52.6956 183.505 53.5538 179.354 52.817C175.883 52.2013 173.008 48.1184 172.76 43.5852C172.419 37.3373 174.095 33.269 178.011 31.7878C180.758 30.7496 183.619 30.3324 186.428 29.631C187.109 29.461 187.798 29.3224 188.464 29.0617C189.742 28.562 190.664 27.5484 190.758 25.464C190.855 23.3095 190.271 21.6307 188.858 20.8153C186.445 19.4249 183.989 19.4594 181.613 21.0515C180.53 21.7776 179.886 23.2391 179.318 25.7213H173.752C173.757 22.6818 174.495 20.1271 175.905 17.9763C177.767 15.135 180.193 14.0195 182.807 13.6279C185.543 13.218 188.263 13.2363 190.921 14.52C194.495 16.2464 196.207 19.6242 196.201 25.0319C196.196 30.7722 196.2 36.5124 196.199 42.2535C196.198 46.3275 196.198 46.3275 199.021 46.6592V46.6592ZM190.419 33.7059C188.665 34.1411 187.06 34.4748 185.476 34.9494C183.81 35.4486 182.112 35.881 180.523 36.7144C178.966 37.5318 178.437 39.6167 178.488 41.8557C178.537 43.9962 179.558 45.1955 180.874 45.8541C183.13 46.9833 185.392 46.8441 187.544 45.4023C189.085 44.3695 190.258 42.6811 190.396 40.1013C190.51 37.9525 190.419 35.7811 190.419 33.7059V33.7059ZM47.1979 13.3929C55.927 13.246 61.0459 22.4117 60.506 34.8918C60.3186 39.2297 59.5048 43.2837 57.5116 46.712C55.3636 50.4058 52.5997 52.351 49.2863 52.8787C46.5195 53.3205 43.8309 53.0609 41.2672 51.3941C37.4492 48.9113 35.2714 44.5786 34.3553 38.8056C33.7271 34.8488 33.7546 30.9085 34.4588 26.9945C36.0125 18.3605 40.6539 13.4265 47.1979 13.3929V13.3929ZM39.5992 33.3089C39.8284 35.1408 39.9481 37.0184 40.3079 38.7961C41.2236 43.3222 43.7174 46.3107 46.5687 46.5087C50.0931 46.7534 52.5591 44.6297 53.8688 39.927C55.1477 35.3362 55.1497 30.6378 53.7476 26.1023C51.6703 19.383 46.0108 17.6648 42.3665 22.6592C40.2884 25.5068 39.752 29.2908 39.5992 33.3089ZM77.4835 13.3934C85.3567 13.3757 90.7137 20.9756 90.8133 32.2795C90.8555 37.0526 90.3127 41.6041 88.3566 45.6025C85.5568 51.3268 81.5124 53.3296 76.8563 53.0258C75.1407 52.9137 73.3623 52.3678 71.7634 51.4688C68.0094 49.358 65.771 45.2018 64.7763 39.639C63.9032 34.7541 64.0003 29.9 65.111 25.1255C66.8144 17.8017 71.4871 13.4063 77.4835 13.3934V13.3934ZM85.0299 32.2938C84.9029 31.2913 84.7776 29.3541 84.4003 27.523C83.4412 22.866 80.9064 20.0387 77.7126 19.8399C74.7049 19.6522 71.9996 22.1926 70.833 26.6417C69.4589 31.882 69.5601 37.1017 71.6304 41.9843C73.7872 47.0708 78.6763 48.1854 81.8828 44.3904C84.3292 41.4946 84.9278 37.4964 85.0299 32.2938V32.2938ZM133.708 24.9193C131.912 24.9193 130.162 24.9404 128.414 24.8925C128.198 24.8868 127.863 24.5776 127.794 24.3006C126.81 20.3886 124.497 19.9234 122.105 19.9038C121.113 19.8952 120.057 20.2412 119.139 20.7931C117.176 21.9727 116.957 25.1543 118.797 26.6782C120.073 27.7355 121.572 28.3034 123.011 28.8841C125.048 29.7058 127.151 30.2006 129.175 31.0765C134.349 33.3169 136.372 40.7484 133.475 46.8749C132.085 49.8129 130.006 51.4032 127.623 52.2272C124.101 53.4448 120.594 53.5341 117.152 51.7535C113.47 49.8474 111.524 46.0221 111.237 40.2319H116.857C118.454 46.2063 122.969 48.5331 127.199 45.4802C128.178 44.7734 128.831 43.7686 128.896 42.1166C128.966 40.3511 128.49 38.8329 127.384 38.242C125.412 37.1884 123.352 36.4659 121.328 35.6157C119.651 34.9112 117.921 34.4024 116.303 33.4851C113.181 31.7142 111.825 28.6676 111.844 24.0228C111.861 19.9716 113.514 16.5006 116.445 14.9781C120.479 12.8826 124.597 12.6219 128.649 14.8959C131.389 16.4333 133.022 19.4651 133.701 23.5471C133.762 23.9239 133.708 24.3414 133.708 24.9193ZM103.198 14.3729H108.399V20.4654H103.302C103.266 21.1949 103.22 21.7055 103.219 22.2157C103.214 28.3652 103.212 34.5145 103.221 40.6629C103.222 41.4812 103.267 42.3017 103.323 43.1169C103.435 44.7429 104.065 45.7086 105.208 45.7976C106.255 45.88 107.308 45.8153 108.417 45.8153V51.9072C106.042 52.7495 103.627 52.705 101.29 51.9591C98.5684 51.0909 97.4627 48.4085 97.4388 43.3311C97.406 36.4209 97.4291 29.5095 97.4281 22.5988V20.5672H93.1082V14.4051H97.3697V3.1214H103.198C103.198 6.81237 103.198 10.4763 103.198 14.3729ZM151.842 52.1419C149.604 52.1419 147.485 52.2418 145.374 52.1134C143.327 51.9891 141.751 50.0448 141.304 47.143C141.049 45.4881 140.914 43.8 140.901 42.1055C140.856 35.604 140.882 29.1008 140.882 22.5985V20.5424H136.577V14.4619H140.818V3.13224H146.658V14.2782H151.835V20.4029H146.867C146.808 20.9548 146.731 21.3364 146.731 21.7189C146.727 28.3384 146.712 34.958 146.742 41.577C146.758 45.0777 147.397 45.9203 149.82 45.8954C150.467 45.8895 151.115 45.8949 151.842 45.8949L151.842 52.1419V52.1419ZM161.556 14.4986V20.9089C163.799 15.4547 166.903 12.6125 171.486 13.5814V21.4896C169.309 21.0207 167.209 20.9371 165.349 22.8517C162.909 25.3642 162.057 29.0355 161.996 33.0824C161.902 39.3386 161.971 45.6005 161.971 51.9968H156.252V14.4981C157.984 14.4986 159.681 14.4986 161.556 14.4986V14.4986Z" fill="#573E7D"/>
</g>
<defs>
<clipPath id="clip0_22_282">
<rect width="229" height="66" fill="white"/>
</clipPath>
</defs>
</svg>
