<svg width="54" height="58" viewBox="0 0 54 58" fill="none" xmlns="http://www.w3.org/2000/svg">
<g clip-path="url(#clip0_22_285)" filter="url(#filter0_i_22_285)">
<path d="M27.2039 52.8978V5.03278L49.4414 5.10222L45.4759 47.9268L27.2039 52.8978Z" fill="#FFDE25"/>
<path d="M4.52163 51.9245L0 0.0968819L54 0.201032L49.2188 51.9245L27.2038 57.9031L4.52163 51.9245Z" fill="#E9CA32"/>
<path d="M24.8225 10.7161H18.9435V42.5738L14.3709 41.757V37.4684L8.92737 36.6516V46.2497L24.8225 50.1298V10.7161ZM29.2327 10.7161H45.508L44.4193 16.8222H35.4457V26.8423H44.4193L43.3306 47.0666L29.2327 50.1298V43.7991L38.758 40.7359L39.308 32.363L29.2327 33.7313V10.7161Z" fill="white"/>
</g>
<defs>
<filter id="filter0_i_22_285" x="0" y="0" width="54" height="62" filterUnits="userSpaceOnUse" color-interpolation-filters="sRGB">
<feFlood flood-opacity="0" result="BackgroundImageFix"/>
<feBlend mode="normal" in="SourceGraphic" in2="BackgroundImageFix" result="shape"/>
<feColorMatrix in="SourceAlpha" type="matrix" values="0 0 0 0 0 0 0 0 0 0 0 0 0 0 0 0 0 0 127 0" result="hardAlpha"/>
<feOffset dy="4"/>
<feGaussianBlur stdDeviation="2"/>
<feComposite in2="hardAlpha" operator="arithmetic" k2="-1" k3="1"/>
<feColorMatrix type="matrix" values="0 0 0 0 0 0 0 0 0 0 0 0 0 0 0 0 0 0 0.25 0"/>
<feBlend mode="normal" in2="shape" result="effect1_innerShadow_22_285"/>
</filter>
<clipPath id="clip0_22_285">
<rect width="54" height="58" fill="white"/>
</clipPath>
</defs>
</svg>
